<mxfile host="Electron" modified="2023-08-01T12:55:15.502Z" agent="Mozilla/5.0 (Windows NT 10.0; Win64; x64) AppleWebKit/537.36 (KHTML, like Gecko) draw.io/21.6.1 Chrome/112.0.5615.204 Electron/24.6.1 Safari/537.36" etag="S_vHi6qJDxh2fXvD_1ko" version="21.6.1" type="device">
  <diagram id="C5RBs43oDa-KdzZeNtuy" name="Page-1">
    <mxGraphModel dx="1615" dy="955" grid="1" gridSize="13" guides="1" tooltips="1" connect="1" arrows="1" fold="1" page="1" pageScale="1" pageWidth="1500" pageHeight="1000" math="0" shadow="0">
      <root>
        <mxCell id="WIyWlLk6GJQsqaUBKTNV-0" />
        <mxCell id="WIyWlLk6GJQsqaUBKTNV-1" parent="WIyWlLk6GJQsqaUBKTNV-0" />
        <mxCell id="WIyWlLk6GJQsqaUBKTNV-2" value="" style="rounded=0;html=1;jettySize=auto;orthogonalLoop=1;fontSize=11;endArrow=block;endFill=0;endSize=8;strokeWidth=1;shadow=0;labelBackgroundColor=none;edgeStyle=orthogonalEdgeStyle;" parent="WIyWlLk6GJQsqaUBKTNV-1" edge="1">
          <mxGeometry relative="1" as="geometry">
            <mxPoint x="307" y="120" as="sourcePoint" />
            <mxPoint x="307" y="170" as="targetPoint" />
          </mxGeometry>
        </mxCell>
        <mxCell id="MDiRmu7Jy7xwaMgHwh0o-1" value="click on Edit In workout EL" style="strokeWidth=2;html=1;shape=mxgraph.flowchart.start_1;whiteSpace=wrap;fillColor=#ffe6cc;strokeColor=#d79b00;" vertex="1" parent="WIyWlLk6GJQsqaUBKTNV-1">
          <mxGeometry x="242" y="39" width="130" height="86" as="geometry" />
        </mxCell>
        <mxCell id="MDiRmu7Jy7xwaMgHwh0o-17" value="" style="edgeStyle=orthogonalEdgeStyle;rounded=0;orthogonalLoop=1;jettySize=auto;html=1;" edge="1" parent="WIyWlLk6GJQsqaUBKTNV-1" source="MDiRmu7Jy7xwaMgHwh0o-2" target="MDiRmu7Jy7xwaMgHwh0o-16">
          <mxGeometry relative="1" as="geometry" />
        </mxCell>
        <mxCell id="MDiRmu7Jy7xwaMgHwh0o-2" value="Give data info from input&amp;nbsp;" style="shape=parallelogram;html=1;strokeWidth=2;perimeter=parallelogramPerimeter;whiteSpace=wrap;rounded=1;arcSize=12;size=0.23;fillColor=#dae8fc;strokeColor=#6c8ebf;" vertex="1" parent="WIyWlLk6GJQsqaUBKTNV-1">
          <mxGeometry x="206.25" y="286" width="201.5" height="60" as="geometry" />
        </mxCell>
        <mxCell id="MDiRmu7Jy7xwaMgHwh0o-7" value="" style="edgeStyle=orthogonalEdgeStyle;rounded=0;orthogonalLoop=1;jettySize=auto;html=1;" edge="1" parent="WIyWlLk6GJQsqaUBKTNV-1" source="MDiRmu7Jy7xwaMgHwh0o-3" target="MDiRmu7Jy7xwaMgHwh0o-5">
          <mxGeometry relative="1" as="geometry" />
        </mxCell>
        <mxCell id="MDiRmu7Jy7xwaMgHwh0o-35" style="edgeStyle=orthogonalEdgeStyle;shape=connector;rounded=0;orthogonalLoop=1;jettySize=auto;html=1;entryX=0;entryY=0.5;entryDx=0;entryDy=0;entryPerimeter=0;labelBackgroundColor=default;strokeColor=default;fontFamily=Helvetica;fontSize=11;fontColor=default;endArrow=classic;" edge="1" parent="WIyWlLk6GJQsqaUBKTNV-1" source="MDiRmu7Jy7xwaMgHwh0o-3" target="MDiRmu7Jy7xwaMgHwh0o-22">
          <mxGeometry relative="1" as="geometry" />
        </mxCell>
        <mxCell id="MDiRmu7Jy7xwaMgHwh0o-3" value="Receave ID of workout&amp;nbsp;" style="rounded=1;whiteSpace=wrap;html=1;absoluteArcSize=1;arcSize=14;strokeWidth=2;fillColor=#d5e8d4;strokeColor=#82b366;" vertex="1" parent="WIyWlLk6GJQsqaUBKTNV-1">
          <mxGeometry x="214.5" y="546" width="185" height="52" as="geometry" />
        </mxCell>
        <mxCell id="MDiRmu7Jy7xwaMgHwh0o-12" value="" style="edgeStyle=orthogonalEdgeStyle;rounded=0;orthogonalLoop=1;jettySize=auto;html=1;" edge="1" parent="WIyWlLk6GJQsqaUBKTNV-1" source="MDiRmu7Jy7xwaMgHwh0o-5" target="MDiRmu7Jy7xwaMgHwh0o-11">
          <mxGeometry relative="1" as="geometry" />
        </mxCell>
        <mxCell id="MDiRmu7Jy7xwaMgHwh0o-5" value="Accsses the object of workout from id&amp;nbsp;" style="rounded=1;whiteSpace=wrap;html=1;absoluteArcSize=1;arcSize=14;strokeWidth=2;fillColor=#d5e8d4;strokeColor=#82b366;" vertex="1" parent="WIyWlLk6GJQsqaUBKTNV-1">
          <mxGeometry x="214.5" y="689" width="185" height="52" as="geometry" />
        </mxCell>
        <mxCell id="MDiRmu7Jy7xwaMgHwh0o-9" style="edgeStyle=orthogonalEdgeStyle;rounded=0;orthogonalLoop=1;jettySize=auto;html=1;exitX=0.5;exitY=1;exitDx=0;exitDy=0;" edge="1" parent="WIyWlLk6GJQsqaUBKTNV-1" source="MDiRmu7Jy7xwaMgHwh0o-5" target="MDiRmu7Jy7xwaMgHwh0o-5">
          <mxGeometry relative="1" as="geometry" />
        </mxCell>
        <mxCell id="MDiRmu7Jy7xwaMgHwh0o-25" value="" style="edgeStyle=orthogonalEdgeStyle;rounded=0;orthogonalLoop=1;jettySize=auto;html=1;" edge="1" parent="WIyWlLk6GJQsqaUBKTNV-1" source="MDiRmu7Jy7xwaMgHwh0o-11" target="MDiRmu7Jy7xwaMgHwh0o-24">
          <mxGeometry relative="1" as="geometry" />
        </mxCell>
        <mxCell id="MDiRmu7Jy7xwaMgHwh0o-11" value="Accsses of&amp;nbsp; object workout from id&amp;nbsp;" style="rounded=1;whiteSpace=wrap;html=1;absoluteArcSize=1;arcSize=14;strokeWidth=2;fillColor=#d5e8d4;strokeColor=#82b366;" vertex="1" parent="WIyWlLk6GJQsqaUBKTNV-1">
          <mxGeometry x="214.5" y="806" width="185" height="52" as="geometry" />
        </mxCell>
        <mxCell id="MDiRmu7Jy7xwaMgHwh0o-14" value="" style="edgeStyle=orthogonalEdgeStyle;rounded=0;orthogonalLoop=1;jettySize=auto;html=1;" edge="1" parent="WIyWlLk6GJQsqaUBKTNV-1" source="MDiRmu7Jy7xwaMgHwh0o-13" target="MDiRmu7Jy7xwaMgHwh0o-2">
          <mxGeometry relative="1" as="geometry" />
        </mxCell>
        <mxCell id="MDiRmu7Jy7xwaMgHwh0o-13" value="Show the Form" style="rounded=1;whiteSpace=wrap;html=1;absoluteArcSize=1;arcSize=14;strokeWidth=2;fillColor=#d5e8d4;strokeColor=#82b366;" vertex="1" parent="WIyWlLk6GJQsqaUBKTNV-1">
          <mxGeometry x="214.5" y="169" width="185" height="52" as="geometry" />
        </mxCell>
        <mxCell id="MDiRmu7Jy7xwaMgHwh0o-18" value="" style="edgeStyle=orthogonalEdgeStyle;rounded=0;orthogonalLoop=1;jettySize=auto;html=1;" edge="1" parent="WIyWlLk6GJQsqaUBKTNV-1" source="MDiRmu7Jy7xwaMgHwh0o-16" target="MDiRmu7Jy7xwaMgHwh0o-3">
          <mxGeometry relative="1" as="geometry" />
        </mxCell>
        <mxCell id="MDiRmu7Jy7xwaMgHwh0o-16" value="Save the data in varible" style="rounded=1;whiteSpace=wrap;html=1;absoluteArcSize=1;arcSize=14;strokeWidth=2;fillColor=#d5e8d4;strokeColor=#82b366;" vertex="1" parent="WIyWlLk6GJQsqaUBKTNV-1">
          <mxGeometry x="214.5" y="416" width="185" height="52" as="geometry" />
        </mxCell>
        <mxCell id="MDiRmu7Jy7xwaMgHwh0o-22" value="By Selecting elemen with closes" style="strokeWidth=2;html=1;shape=mxgraph.flowchart.terminator;whiteSpace=wrap;fillColor=#fad9d5;strokeColor=#ae4132;" vertex="1" parent="WIyWlLk6GJQsqaUBKTNV-1">
          <mxGeometry x="468" y="346" width="169" height="60" as="geometry" />
        </mxCell>
        <mxCell id="MDiRmu7Jy7xwaMgHwh0o-28" value="" style="edgeStyle=orthogonalEdgeStyle;rounded=0;orthogonalLoop=1;jettySize=auto;html=1;" edge="1" parent="WIyWlLk6GJQsqaUBKTNV-1" source="MDiRmu7Jy7xwaMgHwh0o-24">
          <mxGeometry relative="1" as="geometry">
            <mxPoint x="552.5" y="730" as="targetPoint" />
          </mxGeometry>
        </mxCell>
        <mxCell id="MDiRmu7Jy7xwaMgHwh0o-24" value="change the data of spific object" style="rounded=1;whiteSpace=wrap;html=1;absoluteArcSize=1;arcSize=14;strokeWidth=2;fillColor=#d0cee2;strokeColor=#56517e;" vertex="1" parent="WIyWlLk6GJQsqaUBKTNV-1">
          <mxGeometry x="481" y="806" width="143" height="52" as="geometry" />
        </mxCell>
        <mxCell id="MDiRmu7Jy7xwaMgHwh0o-38" value="" style="edgeStyle=orthogonalEdgeStyle;shape=connector;rounded=0;orthogonalLoop=1;jettySize=auto;html=1;labelBackgroundColor=default;strokeColor=default;fontFamily=Helvetica;fontSize=11;fontColor=default;endArrow=classic;" edge="1" parent="WIyWlLk6GJQsqaUBKTNV-1" source="MDiRmu7Jy7xwaMgHwh0o-29" target="MDiRmu7Jy7xwaMgHwh0o-37">
          <mxGeometry relative="1" as="geometry" />
        </mxCell>
        <mxCell id="MDiRmu7Jy7xwaMgHwh0o-29" value="Render the workout list again&amp;nbsp; &amp;nbsp; &amp;nbsp; &amp;nbsp;" style="strokeWidth=2;html=1;shape=mxgraph.flowchart.multi-document;whiteSpace=wrap;fillColor=#d0cee2;strokeColor=#56517e;" vertex="1" parent="WIyWlLk6GJQsqaUBKTNV-1">
          <mxGeometry x="448.5" y="650" width="208" height="86" as="geometry" />
        </mxCell>
        <mxCell id="MDiRmu7Jy7xwaMgHwh0o-37" value="End" style="strokeWidth=2;html=1;shape=mxgraph.flowchart.start_1;whiteSpace=wrap;fillColor=#ffe6cc;strokeColor=#d79b00;" vertex="1" parent="WIyWlLk6GJQsqaUBKTNV-1">
          <mxGeometry x="487.5" y="500" width="130" height="86" as="geometry" />
        </mxCell>
        <mxCell id="MDiRmu7Jy7xwaMgHwh0o-54" value="" style="edgeStyle=orthogonalEdgeStyle;shape=connector;rounded=0;orthogonalLoop=1;jettySize=auto;html=1;labelBackgroundColor=default;strokeColor=default;fontFamily=Helvetica;fontSize=11;fontColor=default;endArrow=classic;" edge="1" parent="WIyWlLk6GJQsqaUBKTNV-1" source="MDiRmu7Jy7xwaMgHwh0o-39" target="MDiRmu7Jy7xwaMgHwh0o-53">
          <mxGeometry relative="1" as="geometry" />
        </mxCell>
        <mxCell id="MDiRmu7Jy7xwaMgHwh0o-39" value="cllick on Delete In workout EL" style="strokeWidth=2;html=1;shape=mxgraph.flowchart.start_1;whiteSpace=wrap;fillColor=#ffe6cc;strokeColor=#d79b00;" vertex="1" parent="WIyWlLk6GJQsqaUBKTNV-1">
          <mxGeometry x="1049.75" y="39" width="130" height="86" as="geometry" />
        </mxCell>
        <mxCell id="MDiRmu7Jy7xwaMgHwh0o-43" value="" style="edgeStyle=orthogonalEdgeStyle;shape=connector;rounded=0;orthogonalLoop=1;jettySize=auto;html=1;labelBackgroundColor=default;strokeColor=default;fontFamily=Helvetica;fontSize=11;fontColor=default;endArrow=classic;" edge="1" parent="WIyWlLk6GJQsqaUBKTNV-1" source="MDiRmu7Jy7xwaMgHwh0o-40" target="MDiRmu7Jy7xwaMgHwh0o-42">
          <mxGeometry relative="1" as="geometry" />
        </mxCell>
        <mxCell id="MDiRmu7Jy7xwaMgHwh0o-40" value="Show the Promt input" style="rounded=1;whiteSpace=wrap;html=1;absoluteArcSize=1;arcSize=14;strokeWidth=2;fillColor=#d5e8d4;strokeColor=#82b366;" vertex="1" parent="WIyWlLk6GJQsqaUBKTNV-1">
          <mxGeometry x="1022.25" y="286" width="185" height="52" as="geometry" />
        </mxCell>
        <mxCell id="MDiRmu7Jy7xwaMgHwh0o-45" value="" style="edgeStyle=orthogonalEdgeStyle;shape=connector;rounded=0;orthogonalLoop=1;jettySize=auto;html=1;labelBackgroundColor=default;strokeColor=default;fontFamily=Helvetica;fontSize=11;fontColor=default;endArrow=classic;" edge="1" parent="WIyWlLk6GJQsqaUBKTNV-1" source="MDiRmu7Jy7xwaMgHwh0o-42" target="MDiRmu7Jy7xwaMgHwh0o-44">
          <mxGeometry relative="1" as="geometry" />
        </mxCell>
        <mxCell id="MDiRmu7Jy7xwaMgHwh0o-42" value="Receve a boolian Y / N" style="shape=parallelogram;html=1;strokeWidth=2;perimeter=parallelogramPerimeter;whiteSpace=wrap;rounded=1;arcSize=12;size=0.23;fillColor=#dae8fc;strokeColor=#6c8ebf;" vertex="1" parent="WIyWlLk6GJQsqaUBKTNV-1">
          <mxGeometry x="1014" y="416" width="201.5" height="60" as="geometry" />
        </mxCell>
        <mxCell id="MDiRmu7Jy7xwaMgHwh0o-48" value="" style="edgeStyle=orthogonalEdgeStyle;shape=connector;rounded=0;orthogonalLoop=1;jettySize=auto;html=1;labelBackgroundColor=default;strokeColor=default;fontFamily=Helvetica;fontSize=11;fontColor=default;endArrow=classic;" edge="1" parent="WIyWlLk6GJQsqaUBKTNV-1" source="MDiRmu7Jy7xwaMgHwh0o-44" target="MDiRmu7Jy7xwaMgHwh0o-47">
          <mxGeometry relative="1" as="geometry" />
        </mxCell>
        <mxCell id="MDiRmu7Jy7xwaMgHwh0o-49" value="NO" style="edgeLabel;html=1;align=center;verticalAlign=middle;resizable=0;points=[];fontSize=11;fontFamily=Helvetica;fontColor=default;" vertex="1" connectable="0" parent="MDiRmu7Jy7xwaMgHwh0o-48">
          <mxGeometry x="0.3238" y="-1" relative="1" as="geometry">
            <mxPoint x="-13" y="-1" as="offset" />
          </mxGeometry>
        </mxCell>
        <mxCell id="MDiRmu7Jy7xwaMgHwh0o-51" value="" style="edgeStyle=orthogonalEdgeStyle;shape=connector;rounded=0;orthogonalLoop=1;jettySize=auto;html=1;labelBackgroundColor=default;strokeColor=default;fontFamily=Helvetica;fontSize=11;fontColor=default;endArrow=classic;" edge="1" parent="WIyWlLk6GJQsqaUBKTNV-1" source="MDiRmu7Jy7xwaMgHwh0o-44" target="MDiRmu7Jy7xwaMgHwh0o-50">
          <mxGeometry relative="1" as="geometry" />
        </mxCell>
        <mxCell id="MDiRmu7Jy7xwaMgHwh0o-52" value="YES" style="edgeLabel;html=1;align=center;verticalAlign=middle;resizable=0;points=[];fontSize=11;fontFamily=Helvetica;fontColor=default;" vertex="1" connectable="0" parent="MDiRmu7Jy7xwaMgHwh0o-51">
          <mxGeometry x="-0.1984" relative="1" as="geometry">
            <mxPoint as="offset" />
          </mxGeometry>
        </mxCell>
        <mxCell id="MDiRmu7Jy7xwaMgHwh0o-66" value="" style="edgeStyle=orthogonalEdgeStyle;shape=connector;rounded=0;orthogonalLoop=1;jettySize=auto;html=1;labelBackgroundColor=default;strokeColor=default;fontFamily=Helvetica;fontSize=11;fontColor=default;endArrow=classic;" edge="1" parent="WIyWlLk6GJQsqaUBKTNV-1" source="MDiRmu7Jy7xwaMgHwh0o-44" target="MDiRmu7Jy7xwaMgHwh0o-65">
          <mxGeometry relative="1" as="geometry" />
        </mxCell>
        <mxCell id="MDiRmu7Jy7xwaMgHwh0o-67" value="ELSE" style="edgeLabel;html=1;align=center;verticalAlign=middle;resizable=0;points=[];fontSize=11;fontFamily=Helvetica;fontColor=default;" vertex="1" connectable="0" parent="MDiRmu7Jy7xwaMgHwh0o-66">
          <mxGeometry x="-0.1099" relative="1" as="geometry">
            <mxPoint as="offset" />
          </mxGeometry>
        </mxCell>
        <mxCell id="MDiRmu7Jy7xwaMgHwh0o-44" value="You sure to delet this &lt;br&gt;work out ?" style="strokeWidth=2;html=1;shape=mxgraph.flowchart.decision;whiteSpace=wrap;fontFamily=Helvetica;fontSize=11;fillColor=#fad9d5;strokeColor=#ae4132;" vertex="1" parent="WIyWlLk6GJQsqaUBKTNV-1">
          <mxGeometry x="1036.75" y="533" width="156" height="100" as="geometry" />
        </mxCell>
        <mxCell id="MDiRmu7Jy7xwaMgHwh0o-47" value="End" style="strokeWidth=2;html=1;shape=mxgraph.flowchart.start_1;whiteSpace=wrap;fillColor=#ffe6cc;strokeColor=#d79b00;" vertex="1" parent="WIyWlLk6GJQsqaUBKTNV-1">
          <mxGeometry x="1270.75" y="540" width="130" height="86" as="geometry" />
        </mxCell>
        <mxCell id="MDiRmu7Jy7xwaMgHwh0o-60" value="" style="edgeStyle=orthogonalEdgeStyle;shape=connector;rounded=0;orthogonalLoop=1;jettySize=auto;html=1;labelBackgroundColor=default;strokeColor=default;fontFamily=Helvetica;fontSize=11;fontColor=default;endArrow=classic;" edge="1" parent="WIyWlLk6GJQsqaUBKTNV-1" source="MDiRmu7Jy7xwaMgHwh0o-50" target="MDiRmu7Jy7xwaMgHwh0o-59">
          <mxGeometry relative="1" as="geometry" />
        </mxCell>
        <mxCell id="MDiRmu7Jy7xwaMgHwh0o-50" value="Find the workout By ID In array" style="whiteSpace=wrap;html=1;fontSize=11;fillColor=#d5e8d4;strokeColor=#82b366;strokeWidth=2;" vertex="1" parent="WIyWlLk6GJQsqaUBKTNV-1">
          <mxGeometry x="1032.75" y="715" width="164" height="52" as="geometry" />
        </mxCell>
        <mxCell id="MDiRmu7Jy7xwaMgHwh0o-56" value="" style="edgeStyle=orthogonalEdgeStyle;shape=connector;rounded=0;orthogonalLoop=1;jettySize=auto;html=1;labelBackgroundColor=default;strokeColor=default;fontFamily=Helvetica;fontSize=11;fontColor=default;endArrow=classic;" edge="1" parent="WIyWlLk6GJQsqaUBKTNV-1" source="MDiRmu7Jy7xwaMgHwh0o-53" target="MDiRmu7Jy7xwaMgHwh0o-55">
          <mxGeometry relative="1" as="geometry" />
        </mxCell>
        <mxCell id="MDiRmu7Jy7xwaMgHwh0o-57" value="" style="edgeStyle=orthogonalEdgeStyle;shape=connector;rounded=0;orthogonalLoop=1;jettySize=auto;html=1;labelBackgroundColor=default;strokeColor=default;fontFamily=Helvetica;fontSize=11;fontColor=default;endArrow=classic;" edge="1" parent="WIyWlLk6GJQsqaUBKTNV-1" source="MDiRmu7Jy7xwaMgHwh0o-53" target="MDiRmu7Jy7xwaMgHwh0o-40">
          <mxGeometry relative="1" as="geometry" />
        </mxCell>
        <mxCell id="MDiRmu7Jy7xwaMgHwh0o-53" value="Receave ID of workout&amp;nbsp;" style="rounded=1;whiteSpace=wrap;html=1;absoluteArcSize=1;arcSize=14;strokeWidth=2;fillColor=#d5e8d4;strokeColor=#82b366;" vertex="1" parent="WIyWlLk6GJQsqaUBKTNV-1">
          <mxGeometry x="1022.25" y="169" width="185" height="52" as="geometry" />
        </mxCell>
        <mxCell id="MDiRmu7Jy7xwaMgHwh0o-55" value="By Selecting elemen with closes" style="strokeWidth=2;html=1;shape=mxgraph.flowchart.terminator;whiteSpace=wrap;fillColor=#fad9d5;strokeColor=#ae4132;" vertex="1" parent="WIyWlLk6GJQsqaUBKTNV-1">
          <mxGeometry x="1283.75" y="165" width="169" height="60" as="geometry" />
        </mxCell>
        <mxCell id="MDiRmu7Jy7xwaMgHwh0o-62" value="" style="edgeStyle=orthogonalEdgeStyle;shape=connector;rounded=0;orthogonalLoop=1;jettySize=auto;html=1;labelBackgroundColor=default;strokeColor=default;fontFamily=Helvetica;fontSize=11;fontColor=default;endArrow=classic;" edge="1" parent="WIyWlLk6GJQsqaUBKTNV-1" source="MDiRmu7Jy7xwaMgHwh0o-59" target="MDiRmu7Jy7xwaMgHwh0o-61">
          <mxGeometry relative="1" as="geometry" />
        </mxCell>
        <mxCell id="MDiRmu7Jy7xwaMgHwh0o-59" value="Remove the Workout from array" style="whiteSpace=wrap;html=1;fontSize=11;fillColor=#d5e8d4;strokeColor=#82b366;strokeWidth=2;" vertex="1" parent="WIyWlLk6GJQsqaUBKTNV-1">
          <mxGeometry x="1032.75" y="847" width="164" height="52" as="geometry" />
        </mxCell>
        <mxCell id="MDiRmu7Jy7xwaMgHwh0o-64" value="" style="edgeStyle=orthogonalEdgeStyle;shape=connector;rounded=0;orthogonalLoop=1;jettySize=auto;html=1;labelBackgroundColor=default;strokeColor=default;fontFamily=Helvetica;fontSize=11;fontColor=default;endArrow=classic;" edge="1" parent="WIyWlLk6GJQsqaUBKTNV-1" source="MDiRmu7Jy7xwaMgHwh0o-61" target="MDiRmu7Jy7xwaMgHwh0o-63">
          <mxGeometry relative="1" as="geometry" />
        </mxCell>
        <mxCell id="MDiRmu7Jy7xwaMgHwh0o-61" value="Render the workout list again&amp;nbsp; &amp;nbsp; &amp;nbsp; &amp;nbsp;" style="strokeWidth=2;html=1;shape=mxgraph.flowchart.multi-document;whiteSpace=wrap;fillColor=#d0cee2;strokeColor=#56517e;" vertex="1" parent="WIyWlLk6GJQsqaUBKTNV-1">
          <mxGeometry x="1231.75" y="830" width="208" height="86" as="geometry" />
        </mxCell>
        <mxCell id="MDiRmu7Jy7xwaMgHwh0o-63" value="End" style="strokeWidth=2;html=1;shape=mxgraph.flowchart.start_1;whiteSpace=wrap;fillColor=#ffe6cc;strokeColor=#d79b00;" vertex="1" parent="WIyWlLk6GJQsqaUBKTNV-1">
          <mxGeometry x="1270.75" y="698" width="130" height="86" as="geometry" />
        </mxCell>
        <mxCell id="MDiRmu7Jy7xwaMgHwh0o-65" value="Return a ALERT" style="whiteSpace=wrap;html=1;fontSize=11;fillColor=#d5e8d4;strokeColor=#82b366;strokeWidth=2;" vertex="1" parent="WIyWlLk6GJQsqaUBKTNV-1">
          <mxGeometry x="793" y="557" width="164" height="52" as="geometry" />
        </mxCell>
      </root>
    </mxGraphModel>
  </diagram>
</mxfile>
